<?xml version="1.0" encoding="utf-8" ?>
<svg baseProfile="full" height="57.5mm" version="1.1" viewBox="0,0,306.20000000000005,57.5" width="306.20000000000005mm" xmlns="http://www.w3.org/2000/svg" xmlns:ev="http://www.w3.org/2001/xml-events" xmlns:xlink="http://www.w3.org/1999/xlink"><defs /><rect fill="#FFFFFF" height="57.5" width="306.20000000000005" x="0" y="0" /><text fill="#000000" style="font-size:6px; font-family:Arial; font-weight:bold;" x="10" y="10">ä¹ç‹¬ä¹¦æˆ¿</text><text fill="#000000" style="font-size:3px; font-family:Arial;" x="10" y="14.4">2024: 641 hours</text><text fill="#000000" style="font-size:2.5px; font-family:Arial" x="10" y="18.3">Jan</text><rect fill="#34A7FF" height="4" rx="1" ry="1" width="4" x="10" y="19.7"><title>2024-01-01 213.53 mins</title></rect><rect fill="#72c0fc" height="4" rx="1" ry="1" width="4" x="10" y="25.1"><title>2024-01-02 90.72 mins</title></rect><rect fill="#77c2fc" height="4" rx="1" ry="1" width="4" x="10" y="30.5"><title>2024-01-03 62.1 mins</title></rect><rect fill="#71c0fc" height="4" rx="1" ry="1" width="4" x="10" y="35.9"><title>2024-01-04 96.92 mins</title></rect><rect fill="#4fb1fe" height="4" rx="1" ry="1" width="4" x="10" y="41.300000000000004"><title>2024-01-05 142.42 mins</title></rect><rect fill="#34A7FF" height="4" rx="1" ry="1" width="4" x="10" y="46.699999999999996"><title>2024-01-06 178.68 mins</title></rect><rect fill="#51b2fd" height="4" rx="1" ry="1" width="4" x="10" y="52.1"><title>2024-01-07 116.7 mins</title></rect><rect fill="#7ac3fc" height="4" rx="1" ry="1" width="4" x="15.4" y="19.7"><title>2024-01-08 43.67 mins</title></rect><rect fill="#72c0fc" height="4" rx="1" ry="1" width="4" x="15.4" y="25.1"><title>2024-01-09 92.57 mins</title></rect><rect fill="#75c1fc" height="4" rx="1" ry="1" width="4" x="15.4" y="30.5"><title>2024-01-10 75.63 mins</title></rect><rect fill="#51b2fd" height="4" rx="1" ry="1" width="4" x="15.4" y="35.9"><title>2024-01-11 110.75 mins</title></rect><rect fill="#7dc4fc" height="4" rx="1" ry="1" width="4" x="15.4" y="41.300000000000004"><title>2024-01-12 26.42 mins</title></rect><rect fill="#34A7FF" height="4" rx="1" ry="1" width="4" x="15.4" y="46.699999999999996"><title>2024-01-13 272.23 mins</title></rect><rect fill="#72c0fc" height="4" rx="1" ry="1" width="4" x="15.4" y="52.1"><title>2024-01-14 96.37 mins</title></rect><rect fill="#71c0fc" height="4" rx="1" ry="1" width="4" x="20.8" y="19.7"><title>2024-01-15 97.17 mins</title></rect><rect fill="#71bffc" height="4" rx="1" ry="1" width="4" x="20.8" y="25.1"><title>2024-01-16 100.55 mins</title></rect><rect fill="#70bffc" height="4" rx="1" ry="1" width="4" x="20.8" y="30.5"><title>2024-01-17 107.8 mins</title></rect><rect fill="#73c0fc" height="4" rx="1" ry="1" width="4" x="20.8" y="35.9"><title>2024-01-18 85.2 mins</title></rect><rect fill="#7cc4fc" height="4" rx="1" ry="1" width="4" x="20.8" y="41.300000000000004"><title>2024-01-19 29.55 mins</title></rect><rect fill="#4eb1fe" height="4" rx="1" ry="1" width="4" x="20.8" y="46.699999999999996"><title>2024-01-20 150.28 mins</title></rect><rect fill="#72c0fc" height="4" rx="1" ry="1" width="4" x="20.8" y="52.1"><title>2024-01-21 96.42 mins</title></rect><rect fill="#50b2fd" height="4" rx="1" ry="1" width="4" x="26.200000000000003" y="19.7"><title>2024-01-22 126.83 mins</title></rect><rect fill="#79c3fc" height="4" rx="1" ry="1" width="4" x="26.200000000000003" y="25.1"><title>2024-01-23 47.63 mins</title></rect><rect fill="#75c1fc" height="4" rx="1" ry="1" width="4" x="26.200000000000003" y="30.5"><title>2024-01-24 74.8 mins</title></rect><rect fill="#74c1fc" height="4" rx="1" ry="1" width="4" x="26.200000000000003" y="35.9"><title>2024-01-25 79.78 mins</title></rect><rect fill="#7ec5fc" height="4" rx="1" ry="1" width="4" x="26.200000000000003" y="41.300000000000004"><title>2024-01-26 21.45 mins</title></rect><rect fill="#34A7FF" height="4" rx="1" ry="1" width="4" x="26.200000000000003" y="46.699999999999996"><title>2024-01-27 330.0 mins</title></rect><rect fill="#79c3fc" height="4" rx="1" ry="1" width="4" x="26.200000000000003" y="52.1"><title>2024-01-28 48.75 mins</title></rect><rect fill="#77c2fc" height="4" rx="1" ry="1" width="4" x="31.6" y="19.7"><title>2024-01-29 63.78 mins</title></rect><rect fill="#4fb2fd" height="4" rx="1" ry="1" width="4" x="31.6" y="25.1"><title>2024-01-30 137.87 mins</title></rect><rect fill="#7bc4fc" height="4" rx="1" ry="1" width="4" x="31.6" y="30.5"><title>2024-01-31 35.53 mins</title></rect><rect fill="#4fb2fd" height="4" rx="1" ry="1" width="4" x="31.6" y="35.9"><title>2024-02-01 137.37 mins</title></rect><rect fill="#75c1fc" height="4" rx="1" ry="1" width="4" x="31.6" y="41.300000000000004"><title>2024-02-02 74.42 mins</title></rect><rect fill="#50b2fd" height="4" rx="1" ry="1" width="4" x="31.6" y="46.699999999999996"><title>2024-02-03 121.68 mins</title></rect><rect fill="#7bc3fc" height="4" rx="1" ry="1" width="4" x="31.6" y="52.1"><title>2024-02-04 38.68 mins</title></rect><text fill="#000000" style="font-size:2.5px; font-family:Arial" x="37.0" y="18.3">Feb</text><rect fill="#77c2fc" height="4" rx="1" ry="1" width="4" x="37.0" y="19.7"><title>2024-02-05 59.77 mins</title></rect><rect fill="#78c2fc" height="4" rx="1" ry="1" width="4" x="37.0" y="25.1"><title>2024-02-06 57.18 mins</title></rect><rect fill="#78c2fc" height="4" rx="1" ry="1" width="4" x="37.0" y="30.5"><title>2024-02-07 57.1 mins</title></rect><rect fill="#34A7FF" height="4" rx="1" ry="1" width="4" x="37.0" y="35.9"><title>2024-02-08 179.05 mins</title></rect><rect fill="#76c1fc" height="4" rx="1" ry="1" width="4" x="37.0" y="41.300000000000004"><title>2024-02-09 68.1 mins</title></rect><rect fill="#34A7FF" height="4" rx="1" ry="1" width="4" x="37.0" y="46.699999999999996"><title>2024-02-10 172.83 mins</title></rect><rect fill="#74c1fc" height="4" rx="1" ry="1" width="4" x="37.0" y="52.1"><title>2024-02-11 79.2 mins</title></rect><rect fill="#71bffc" height="4" rx="1" ry="1" width="4" x="42.4" y="19.7"><title>2024-02-12 98.05 mins</title></rect><rect fill="#74c0fc" height="4" rx="1" ry="1" width="4" x="42.4" y="25.1"><title>2024-02-13 83.48 mins</title></rect><rect fill="#7ec5fc" height="4" rx="1" ry="1" width="4" x="42.4" y="30.5"><title>2024-02-14 19.05 mins</title></rect><rect fill="#78c2fc" height="4" rx="1" ry="1" width="4" x="42.4" y="35.9"><title>2024-02-15 58.85 mins</title></rect><rect fill="#77c2fc" height="4" rx="1" ry="1" width="4" x="42.4" y="41.300000000000004"><title>2024-02-16 64.55 mins</title></rect><rect fill="#34A7FF" height="4" rx="1" ry="1" width="4" x="42.4" y="46.699999999999996"><title>2024-02-17 302.95 mins</title></rect><rect fill="#74c1fc" height="4" rx="1" ry="1" width="4" x="42.4" y="52.1"><title>2024-02-18 79.9 mins</title></rect><rect fill="#71c0fc" height="4" rx="1" ry="1" width="4" x="47.8" y="19.7"><title>2024-02-19 96.85 mins</title></rect><rect fill="#75c1fc" height="4" rx="1" ry="1" width="4" x="47.8" y="25.1"><title>2024-02-20 77.27 mins</title></rect><rect fill="#77c2fc" height="4" rx="1" ry="1" width="4" x="47.8" y="30.5"><title>2024-02-21 65.32 mins</title></rect><rect fill="#4eb1fe" height="4" rx="1" ry="1" width="4" x="47.8" y="35.9"><title>2024-02-22 155.38 mins</title></rect><rect fill="#77c2fc" height="4" rx="1" ry="1" width="4" x="47.8" y="41.300000000000004"><title>2024-02-23 64.53 mins</title></rect><rect fill="#76c2fc" height="4" rx="1" ry="1" width="4" x="47.8" y="46.699999999999996"><title>2024-02-24 67.28 mins</title></rect><rect fill="#51b2fd" height="4" rx="1" ry="1" width="4" x="47.8" y="52.1"><title>2024-02-25 118.55 mins</title></rect><rect fill="#76c1fc" height="4" rx="1" ry="1" width="4" x="53.199999999999996" y="19.7"><title>2024-02-26 69.63 mins</title></rect><rect fill="#6fbffc" height="4" rx="1" ry="1" width="4" x="53.199999999999996" y="25.1"><title>2024-02-27 109.38 mins</title></rect><rect fill="#71c0fc" height="4" rx="1" ry="1" width="4" x="53.199999999999996" y="30.5"><title>2024-02-28 96.98 mins</title></rect><rect fill="#73c0fc" height="4" rx="1" ry="1" width="4" x="53.199999999999996" y="35.9"><title>2024-02-29 86.73 mins</title></rect><rect fill="#75c1fc" height="4" rx="1" ry="1" width="4" x="53.199999999999996" y="41.300000000000004"><title>2024-03-01 75.55 mins</title></rect><rect fill="#4fb2fd" height="4" rx="1" ry="1" width="4" x="53.199999999999996" y="46.699999999999996"><title>2024-03-02 131.62 mins</title></rect><rect fill="#79c3fc" height="4" rx="1" ry="1" width="4" x="53.199999999999996" y="52.1"><title>2024-03-03 47.53 mins</title></rect><text fill="#000000" style="font-size:2.5px; font-family:Arial" x="58.599999999999994" y="18.3">Mar</text><rect fill="#50b2fd" height="4" rx="1" ry="1" width="4" x="58.599999999999994" y="19.7"><title>2024-03-04 130.23 mins</title></rect><rect fill="#51b2fd" height="4" rx="1" ry="1" width="4" x="58.599999999999994" y="25.1"><title>2024-03-05 112.23 mins</title></rect><rect fill="#72c0fc" height="4" rx="1" ry="1" width="4" x="58.599999999999994" y="30.5"><title>2024-03-06 90.83 mins</title></rect><rect fill="#75c1fc" height="4" rx="1" ry="1" width="4" x="58.599999999999994" y="35.9"><title>2024-03-07 73.12 mins</title></rect><rect fill="#78c2fc" height="4" rx="1" ry="1" width="4" x="58.599999999999994" y="41.300000000000004"><title>2024-03-08 58.43 mins</title></rect><rect fill="#50b2fd" height="4" rx="1" ry="1" width="4" x="58.599999999999994" y="46.699999999999996"><title>2024-03-09 127.83 mins</title></rect><rect fill="#34A7FF" height="4" rx="1" ry="1" width="4" x="58.599999999999994" y="52.1"><title>2024-03-10 169.23 mins</title></rect><rect fill="#76c2fc" height="4" rx="1" ry="1" width="4" x="63.99999999999999" y="19.7"><title>2024-03-11 67.02 mins</title></rect><rect fill="#51b2fd" height="4" rx="1" ry="1" width="4" x="63.99999999999999" y="25.1"><title>2024-03-12 112.08 mins</title></rect><rect fill="#73c0fc" height="4" rx="1" ry="1" width="4" x="63.99999999999999" y="30.5"><title>2024-03-13 84.92 mins</title></rect><rect fill="#70bffc" height="4" rx="1" ry="1" width="4" x="63.99999999999999" y="35.9"><title>2024-03-14 106.92 mins</title></rect><rect fill="#74c1fc" height="4" rx="1" ry="1" width="4" x="63.99999999999999" y="41.300000000000004"><title>2024-03-15 79.88 mins</title></rect><rect fill="#77c2fc" height="4" rx="1" ry="1" width="4" x="63.99999999999999" y="46.699999999999996"><title>2024-03-16 62.02 mins</title></rect><rect fill="#4eb1fe" height="4" rx="1" ry="1" width="4" x="63.99999999999999" y="52.1"><title>2024-03-17 152.08 mins</title></rect><rect fill="#4fb2fe" height="4" rx="1" ry="1" width="4" x="69.39999999999999" y="19.7"><title>2024-03-18 140.13 mins</title></rect><rect fill="#4fb1fe" height="4" rx="1" ry="1" width="4" x="69.39999999999999" y="25.1"><title>2024-03-19 142.02 mins</title></rect><rect fill="#4fb1fe" height="4" rx="1" ry="1" width="4" x="69.39999999999999" y="30.5"><title>2024-03-20 143.02 mins</title></rect><rect fill="#75c1fc" height="4" rx="1" ry="1" width="4" x="69.39999999999999" y="35.9"><title>2024-03-21 73.08 mins</title></rect><rect fill="#34A7FF" height="4" rx="1" ry="1" width="4" x="69.39999999999999" y="41.300000000000004"><title>2024-03-22 266.27 mins</title></rect><rect fill="#7ac3fc" height="4" rx="1" ry="1" width="4" x="69.39999999999999" y="46.699999999999996"><title>2024-03-23 41.03 mins</title></rect><rect fill="#50b2fd" height="4" rx="1" ry="1" width="4" x="69.39999999999999" y="52.1"><title>2024-03-24 128.93 mins</title></rect><rect fill="#4fb2fd" height="4" rx="1" ry="1" width="4" x="74.8" y="19.7"><title>2024-03-25 134.38 mins</title></rect><rect fill="#50b2fd" height="4" rx="1" ry="1" width="4" x="74.8" y="25.1"><title>2024-03-26 121.82 mins</title></rect><rect fill="#73c0fc" height="4" rx="1" ry="1" width="4" x="74.8" y="30.5"><title>2024-03-27 85.07 mins</title></rect><rect fill="#77c2fc" height="4" rx="1" ry="1" width="4" x="74.8" y="35.9"><title>2024-03-28 64.32 mins</title></rect><rect fill="#78c2fc" height="4" rx="1" ry="1" width="4" x="74.8" y="41.300000000000004"><title>2024-03-29 55.5 mins</title></rect><rect fill="#4fb2fe" height="4" rx="1" ry="1" width="4" x="74.8" y="46.699999999999996"><title>2024-03-30 139.18 mins</title></rect><rect fill="#50b2fd" height="4" rx="1" ry="1" width="4" x="74.8" y="52.1"><title>2024-03-31 129.23 mins</title></rect><text fill="#000000" style="font-size:2.5px; font-family:Arial" x="80.2" y="18.3">Apr</text><rect fill="#50b2fd" height="4" rx="1" ry="1" width="4" x="80.2" y="19.7"><title>2024-04-01 124.27 mins</title></rect><rect fill="#71bffc" height="4" rx="1" ry="1" width="4" x="80.2" y="25.1"><title>2024-04-02 102.37 mins</title></rect><rect fill="#72c0fc" height="4" rx="1" ry="1" width="4" x="80.2" y="30.5"><title>2024-04-03 96.18 mins</title></rect><rect fill="#77c2fc" height="4" rx="1" ry="1" width="4" x="80.2" y="35.9"><title>2024-04-04 60.85 mins</title></rect><rect fill="#34A7FF" height="4" rx="1" ry="1" width="4" x="80.2" y="41.300000000000004"><title>2024-04-05 226.35 mins</title></rect><rect fill="#34A7FF" height="4" rx="1" ry="1" width="4" x="80.2" y="46.699999999999996"><title>2024-04-06 181.27 mins</title></rect><rect fill="#51b2fd" height="4" rx="1" ry="1" width="4" x="80.2" y="52.1"><title>2024-04-07 115.57 mins</title></rect><rect fill="#75c1fc" height="4" rx="1" ry="1" width="4" x="85.60000000000001" y="19.7"><title>2024-04-08 74.25 mins</title></rect><rect fill="#50b2fd" height="4" rx="1" ry="1" width="4" x="85.60000000000001" y="25.1"><title>2024-04-09 121.73 mins</title></rect><rect fill="#4eb1fe" height="4" rx="1" ry="1" width="4" x="85.60000000000001" y="30.5"><title>2024-04-10 149.4 mins</title></rect><rect fill="#51b2fd" height="4" rx="1" ry="1" width="4" x="85.60000000000001" y="35.9"><title>2024-04-11 110.02 mins</title></rect><rect fill="#70bffc" height="4" rx="1" ry="1" width="4" x="85.60000000000001" y="41.300000000000004"><title>2024-04-12 104.38 mins</title></rect><rect fill="#34A7FF" height="4" rx="1" ry="1" width="4" x="85.60000000000001" y="46.699999999999996"><title>2024-04-13 212.12 mins</title></rect><rect fill="#50b2fd" height="4" rx="1" ry="1" width="4" x="85.60000000000001" y="52.1"><title>2024-04-14 121.9 mins</title></rect><rect fill="#70bffc" height="4" rx="1" ry="1" width="4" x="91.00000000000001" y="19.7"><title>2024-04-15 103.03 mins</title></rect><rect fill="#51b2fd" height="4" rx="1" ry="1" width="4" x="91.00000000000001" y="25.1"><title>2024-04-16 117.97 mins</title></rect><rect fill="#51b2fd" height="4" rx="1" ry="1" width="4" x="91.00000000000001" y="30.5"><title>2024-04-17 116.6 mins</title></rect><rect fill="#51b2fd" height="4" rx="1" ry="1" width="4" x="91.00000000000001" y="35.9"><title>2024-04-18 115.35 mins</title></rect><rect fill="#72c0fc" height="4" rx="1" ry="1" width="4" x="91.00000000000001" y="41.300000000000004"><title>2024-04-19 96.25 mins</title></rect><rect fill="#4fb1fe" height="4" rx="1" ry="1" width="4" x="91.00000000000001" y="46.699999999999996"><title>2024-04-20 143.87 mins</title></rect><rect fill="#71bffc" height="4" rx="1" ry="1" width="4" x="91.00000000000001" y="52.1"><title>2024-04-21 98.07 mins</title></rect><rect fill="#50b2fd" height="4" rx="1" ry="1" width="4" x="96.40000000000002" y="19.7"><title>2024-04-22 123.42 mins</title></rect><rect fill="#51b2fd" height="4" rx="1" ry="1" width="4" x="96.40000000000002" y="25.1"><title>2024-04-23 116.1 mins</title></rect><rect fill="#76c1fc" height="4" rx="1" ry="1" width="4" x="96.40000000000002" y="30.5"><title>2024-04-24 68.13 mins</title></rect><rect fill="#34A7FF" height="4" rx="1" ry="1" width="4" x="96.40000000000002" y="35.9"><title>2024-04-25 176.38 mins</title></rect><rect fill="#70bffc" height="4" rx="1" ry="1" width="4" x="96.40000000000002" y="41.300000000000004"><title>2024-04-26 106.8 mins</title></rect><rect fill="#34A7FF" height="4" rx="1" ry="1" width="4" x="96.40000000000002" y="46.699999999999996"><title>2024-04-27 209.97 mins</title></rect><rect fill="#71c0fc" height="4" rx="1" ry="1" width="4" x="96.40000000000002" y="52.1"><title>2024-04-28 96.93 mins</title></rect><rect fill="#51b2fd" height="4" rx="1" ry="1" width="4" x="101.80000000000003" y="19.7"><title>2024-04-29 113.42 mins</title></rect><rect fill="#4eb1fe" height="4" rx="1" ry="1" width="4" x="101.80000000000003" y="25.1"><title>2024-04-30 149.25 mins</title></rect><rect fill="#79c3fc" height="4" rx="1" ry="1" width="4" x="101.80000000000003" y="30.5"><title>2024-05-01 49.68 mins</title></rect><rect fill="#4db1fe" height="4" rx="1" ry="1" width="4" x="101.80000000000003" y="35.9"><title>2024-05-02 166.77 mins</title></rect><rect fill="#7dc4fc" height="4" rx="1" ry="1" width="4" x="101.80000000000003" y="41.300000000000004"><title>2024-05-03 26.07 mins</title></rect><rect fill="#34A7FF" height="4" rx="1" ry="1" width="4" x="101.80000000000003" y="46.699999999999996"><title>2024-05-04 471.4 mins</title></rect><rect fill="#71bffc" height="4" rx="1" ry="1" width="4" x="101.80000000000003" y="52.1"><title>2024-05-05 99.68 mins</title></rect><text fill="#000000" style="font-size:2.5px; font-family:Arial" x="107.20000000000003" y="18.3">May</text><rect fill="#75c1fc" height="4" rx="1" ry="1" width="4" x="107.20000000000003" y="19.7"><title>2024-05-06 78.08 mins</title></rect><rect fill="#4fb2fd" height="4" rx="1" ry="1" width="4" x="107.20000000000003" y="25.1"><title>2024-05-07 135.27 mins</title></rect><rect fill="#50b2fd" height="4" rx="1" ry="1" width="4" x="107.20000000000003" y="30.5"><title>2024-05-08 120.42 mins</title></rect><rect fill="#51b2fd" height="4" rx="1" ry="1" width="4" x="107.20000000000003" y="35.9"><title>2024-05-09 111.45 mins</title></rect><rect fill="#77c2fc" height="4" rx="1" ry="1" width="4" x="107.20000000000003" y="41.300000000000004"><title>2024-05-10 60.8 mins</title></rect><rect fill="#74c1fc" height="4" rx="1" ry="1" width="4" x="107.20000000000003" y="46.699999999999996"><title>2024-05-11 81.68 mins</title></rect><rect fill="#4eb1fe" height="4" rx="1" ry="1" width="4" x="107.20000000000003" y="52.1"><title>2024-05-12 155.27 mins</title></rect><rect fill="#4db1fe" height="4" rx="1" ry="1" width="4" x="112.60000000000004" y="19.7"><title>2024-05-13 161.48 mins</title></rect><rect fill="#4fb2fd" height="4" rx="1" ry="1" width="4" x="112.60000000000004" y="25.1"><title>2024-05-14 136.72 mins</title></rect><rect fill="#51b2fd" height="4" rx="1" ry="1" width="4" x="112.60000000000004" y="30.5"><title>2024-05-15 109.9 mins</title></rect><rect fill="#34A7FF" height="4" rx="1" ry="1" width="4" x="112.60000000000004" y="35.9"><title>2024-05-16 171.02 mins</title></rect><rect fill="#76c2fc" height="4" rx="1" ry="1" width="4" x="112.60000000000004" y="41.300000000000004"><title>2024-05-17 66.98 mins</title></rect><rect fill="#50b2fd" height="4" rx="1" ry="1" width="4" x="112.60000000000004" y="46.699999999999996"><title>2024-05-18 121.5 mins</title></rect><rect fill="#4eb1fe" height="4" rx="1" ry="1" width="4" x="112.60000000000004" y="52.1"><title>2024-05-19 144.95 mins</title></rect><rect fill="#4eb1fe" height="4" rx="1" ry="1" width="4" x="118.00000000000004" y="19.7"><title>2024-05-20 145.42 mins</title></rect><rect fill="#74c1fc" height="4" rx="1" ry="1" width="4" x="118.00000000000004" y="25.1"><title>2024-05-21 80.92 mins</title></rect><rect fill="#70bffc" height="4" rx="1" ry="1" width="4" x="118.00000000000004" y="30.5"><title>2024-05-22 105.47 mins</title></rect><rect fill="#75c1fc" height="4" rx="1" ry="1" width="4" x="118.00000000000004" y="35.9"><title>2024-05-23 74.87 mins</title></rect><rect fill="#73c0fc" height="4" rx="1" ry="1" width="4" x="118.00000000000004" y="41.300000000000004"><title>2024-05-24 86.23 mins</title></rect><rect fill="#72c0fc" height="4" rx="1" ry="1" width="4" x="118.00000000000004" y="46.699999999999996"><title>2024-05-25 92.45 mins</title></rect><rect fill="#50b2fd" height="4" rx="1" ry="1" width="4" x="118.00000000000004" y="52.1"><title>2024-05-26 130.07 mins</title></rect><rect fill="#73c0fc" height="4" rx="1" ry="1" width="4" x="123.40000000000005" y="19.7"><title>2024-05-27 88.82 mins</title></rect><rect fill="#74c1fc" height="4" rx="1" ry="1" width="4" x="123.40000000000005" y="25.1"><title>2024-05-28 82.0 mins</title></rect><rect fill="#50b2fd" height="4" rx="1" ry="1" width="4" x="123.40000000000005" y="30.5"><title>2024-05-29 129.08 mins</title></rect><rect fill="#76c1fc" height="4" rx="1" ry="1" width="4" x="123.40000000000005" y="35.9"><title>2024-05-30 69.17 mins</title></rect><rect fill="#74c0fc" height="4" rx="1" ry="1" width="4" x="123.40000000000005" y="41.300000000000004"><title>2024-05-31 83.55 mins</title></rect><rect fill="#51b2fd" height="4" rx="1" ry="1" width="4" x="123.40000000000005" y="46.699999999999996"><title>2024-06-01 114.5 mins</title></rect><rect fill="#4eb1fe" height="4" rx="1" ry="1" width="4" x="123.40000000000005" y="52.1"><title>2024-06-02 149.32 mins</title></rect><text fill="#000000" style="font-size:2.5px; font-family:Arial" x="128.80000000000004" y="18.3">Jun</text><rect fill="#50b2fd" height="4" rx="1" ry="1" width="4" x="128.80000000000004" y="19.7"><title>2024-06-03 126.57 mins</title></rect><rect fill="#34A7FF" height="4" rx="1" ry="1" width="4" x="128.80000000000004" y="25.1"><title>2024-06-04 192.65 mins</title></rect><rect fill="#70bffc" height="4" rx="1" ry="1" width="4" x="128.80000000000004" y="30.5"><title>2024-06-05 104.65 mins</title></rect><rect fill="#77c2fc" height="4" rx="1" ry="1" width="4" x="128.80000000000004" y="35.9"><title>2024-06-06 61.37 mins</title></rect><rect fill="#4fb2fe" height="4" rx="1" ry="1" width="4" x="128.80000000000004" y="41.300000000000004"><title>2024-06-07 140.6 mins</title></rect><rect fill="#7cc4fc" height="4" rx="1" ry="1" width="4" x="128.80000000000004" y="46.699999999999996"><title>2024-06-08 31.78 mins</title></rect><rect fill="#34A7FF" height="4" rx="1" ry="1" width="4" x="128.80000000000004" y="52.1"><title>2024-06-09 193.13 mins</title></rect><rect fill="#34A7FF" height="4" rx="1" ry="1" width="4" x="134.20000000000005" y="19.7"><title>2024-06-10 169.67 mins</title></rect><rect fill="#77c2fc" height="4" rx="1" ry="1" width="4" x="134.20000000000005" y="25.1"><title>2024-06-11 65.1 mins</title></rect><rect fill="#50b2fd" height="4" rx="1" ry="1" width="4" x="134.20000000000005" y="30.5"><title>2024-06-12 119.65 mins</title></rect><rect fill="#34A7FF" height="4" rx="1" ry="1" width="4" x="134.20000000000005" y="35.9"><title>2024-06-13 170.4 mins</title></rect><rect fill="#4fb2fd" height="4" rx="1" ry="1" width="4" x="134.20000000000005" y="41.300000000000004"><title>2024-06-14 135.75 mins</title></rect><rect fill="#78c2fc" height="4" rx="1" ry="1" width="4" x="134.20000000000005" y="46.699999999999996"><title>2024-06-15 57.75 mins</title></rect><rect fill="#71bffc" height="4" rx="1" ry="1" width="4" x="134.20000000000005" y="52.1"><title>2024-06-16 100.62 mins</title></rect><rect fill="#34A7FF" height="4" rx="1" ry="1" width="4" x="139.60000000000005" y="19.7"><title>2024-06-17 393.2 mins</title></rect><rect fill="#76c1fc" height="4" rx="1" ry="1" width="4" x="139.60000000000005" y="25.1"><title>2024-06-18 70.97 mins</title></rect><rect fill="#79c3fc" height="4" rx="1" ry="1" width="4" x="139.60000000000005" y="30.5"><title>2024-06-19 50.52 mins</title></rect><rect fill="#50b2fd" height="4" rx="1" ry="1" width="4" x="139.60000000000005" y="35.9"><title>2024-06-20 130.97 mins</title></rect><rect fill="#51b2fd" height="4" rx="1" ry="1" width="4" x="139.60000000000005" y="41.300000000000004"><title>2024-06-21 116.12 mins</title></rect><rect fill="#75c1fc" height="4" rx="1" ry="1" width="4" x="139.60000000000005" y="46.699999999999996"><title>2024-06-22 75.7 mins</title></rect><rect fill="#7bc3fc" height="4" rx="1" ry="1" width="4" x="139.60000000000005" y="52.1"><title>2024-06-23 38.6 mins</title></rect><rect fill="#4fb1fe" height="4" rx="1" ry="1" width="4" x="145.00000000000006" y="19.7"><title>2024-06-24 142.58 mins</title></rect><rect fill="#75c1fc" height="4" rx="1" ry="1" width="4" x="145.00000000000006" y="25.1"><title>2024-06-25 73.67 mins</title></rect><rect fill="#72c0fc" height="4" rx="1" ry="1" width="4" x="145.00000000000006" y="30.5"><title>2024-06-26 90.62 mins</title></rect><rect fill="#7ac3fc" height="4" rx="1" ry="1" width="4" x="145.00000000000006" y="35.9"><title>2024-06-27 41.35 mins</title></rect><rect fill="#78c2fc" height="4" rx="1" ry="1" width="4" x="145.00000000000006" y="41.300000000000004"><title>2024-06-28 55.88 mins</title></rect><rect fill="#4fb2fe" height="4" rx="1" ry="1" width="4" x="145.00000000000006" y="46.699999999999996"><title>2024-06-29 140.15 mins</title></rect><rect fill="#4fb2fd" height="4" rx="1" ry="1" width="4" x="145.00000000000006" y="52.1"><title>2024-06-30 135.63 mins</title></rect><text fill="#000000" style="font-size:2.5px; font-family:Arial" x="150.40000000000006" y="18.3">Jul</text><rect fill="#70bffc" height="4" rx="1" ry="1" width="4" x="150.40000000000006" y="19.7"><title>2024-07-01 105.52 mins</title></rect><rect fill="#72c0fc" height="4" rx="1" ry="1" width="4" x="150.40000000000006" y="25.1"><title>2024-07-02 94.38 mins</title></rect><rect fill="#73c0fc" height="4" rx="1" ry="1" width="4" x="150.40000000000006" y="30.5"><title>2024-07-03 90.38 mins</title></rect><rect fill="#50b2fd" height="4" rx="1" ry="1" width="4" x="150.40000000000006" y="35.9"><title>2024-07-04 120.53 mins</title></rect><rect fill="#4fb2fd" height="4" rx="1" ry="1" width="4" x="150.40000000000006" y="41.300000000000004"><title>2024-07-05 134.03 mins</title></rect><rect fill="#72c0fc" height="4" rx="1" ry="1" width="4" x="150.40000000000006" y="46.699999999999996"><title>2024-07-06 91.8 mins</title></rect><rect fill="#70bffc" height="4" rx="1" ry="1" width="4" x="150.40000000000006" y="52.1"><title>2024-07-07 103.32 mins</title></rect><rect fill="#50b2fd" height="4" rx="1" ry="1" width="4" x="155.80000000000007" y="19.7"><title>2024-07-08 119.2 mins</title></rect><rect fill="#72c0fc" height="4" rx="1" ry="1" width="4" x="155.80000000000007" y="25.1"><title>2024-07-09 92.48 mins</title></rect><rect fill="#75c1fc" height="4" rx="1" ry="1" width="4" x="155.80000000000007" y="30.5"><title>2024-07-10 74.52 mins</title></rect><rect fill="#71bffc" height="4" rx="1" ry="1" width="4" x="155.80000000000007" y="35.9"><title>2024-07-11 102.48 mins</title></rect><rect fill="#4db1fe" height="4" rx="1" ry="1" width="4" x="155.80000000000007" y="41.300000000000004"><title>2024-07-12 160.48 mins</title></rect><rect fill="#34A7FF" height="4" rx="1" ry="1" width="4" x="155.80000000000007" y="46.699999999999996"><title>2024-07-13 169.55 mins</title></rect><rect fill="#71bffc" height="4" rx="1" ry="1" width="4" x="155.80000000000007" y="52.1"><title>2024-07-14 100.98 mins</title></rect><rect fill="#72c0fc" height="4" rx="1" ry="1" width="4" x="161.20000000000007" y="19.7"><title>2024-07-15 96.6 mins</title></rect><rect fill="#34A7FF" height="4" rx="1" ry="1" width="4" x="161.20000000000007" y="25.1"><title>2024-07-16 184.7 mins</title></rect><rect fill="#4eb1fe" height="4" rx="1" ry="1" width="4" x="161.20000000000007" y="30.5"><title>2024-07-17 148.67 mins</title></rect><rect fill="#4fb2fd" height="4" rx="1" ry="1" width="4" x="161.20000000000007" y="35.9"><title>2024-07-18 132.27 mins</title></rect><rect fill="#51b2fd" height="4" rx="1" ry="1" width="4" x="161.20000000000007" y="41.300000000000004"><title>2024-07-19 116.07 mins</title></rect><rect fill="#71bffc" height="4" rx="1" ry="1" width="4" x="161.20000000000007" y="46.699999999999996"><title>2024-07-20 101.7 mins</title></rect><rect fill="#76c1fc" height="4" rx="1" ry="1" width="4" x="161.20000000000007" y="52.1"><title>2024-07-21 68.78 mins</title></rect><rect fill="#4fb2fd" height="4" rx="1" ry="1" width="4" x="166.60000000000008" y="19.7"><title>2024-07-22 131.98 mins</title></rect><rect fill="#51b2fd" height="4" rx="1" ry="1" width="4" x="166.60000000000008" y="25.1"><title>2024-07-23 116.15 mins</title></rect><rect fill="#34A7FF" height="4" rx="1" ry="1" width="4" x="166.60000000000008" y="30.5"><title>2024-07-24 200.62 mins</title></rect><rect fill="#70bffc" height="4" rx="1" ry="1" width="4" x="166.60000000000008" y="35.9"><title>2024-07-25 106.42 mins</title></rect><rect fill="#79c3fc" height="4" rx="1" ry="1" width="4" x="166.60000000000008" y="41.300000000000004"><title>2024-07-26 50.35 mins</title></rect><rect fill="#76c1fc" height="4" rx="1" ry="1" width="4" x="166.60000000000008" y="46.699999999999996"><title>2024-07-27 70.85 mins</title></rect><rect fill="#72c0fc" height="4" rx="1" ry="1" width="4" x="166.60000000000008" y="52.1"><title>2024-07-28 95.63 mins</title></rect><rect fill="#4fb2fd" height="4" rx="1" ry="1" width="4" x="172.00000000000009" y="19.7"><title>2024-07-29 135.05 mins</title></rect><rect fill="#51b2fd" height="4" rx="1" ry="1" width="4" x="172.00000000000009" y="25.1"><title>2024-07-30 114.38 mins</title></rect><rect fill="#34A7FF" height="4" rx="1" ry="1" width="4" x="172.00000000000009" y="30.5"><title>2024-07-31 249.87 mins</title></rect><rect fill="#79c3fc" height="4" rx="1" ry="1" width="4" x="172.00000000000009" y="35.9"><title>2024-08-01 48.17 mins</title></rect><rect fill="#77c2fc" height="4" rx="1" ry="1" width="4" x="172.00000000000009" y="41.300000000000004"><title>2024-08-02 65.7 mins</title></rect><rect fill="#51b2fd" height="4" rx="1" ry="1" width="4" x="172.00000000000009" y="46.699999999999996"><title>2024-08-03 118.72 mins</title></rect><rect fill="#34A7FF" height="4" rx="1" ry="1" width="4" x="172.00000000000009" y="52.1"><title>2024-08-04 193.2 mins</title></rect><text fill="#000000" style="font-size:2.5px; font-family:Arial" x="177.4000000000001" y="18.3">Aug</text><rect fill="#73c0fc" height="4" rx="1" ry="1" width="4" x="177.4000000000001" y="19.7"><title>2024-08-05 90.55 mins</title></rect><rect fill="#76c2fc" height="4" rx="1" ry="1" width="4" x="177.4000000000001" y="25.1"><title>2024-08-06 66.02 mins</title></rect><rect fill="#50b2fd" height="4" rx="1" ry="1" width="4" x="177.4000000000001" y="30.5"><title>2024-08-07 122.52 mins</title></rect><rect fill="#77c2fc" height="4" rx="1" ry="1" width="4" x="177.4000000000001" y="35.9"><title>2024-08-08 65.43 mins</title></rect><rect fill="#34A7FF" height="4" rx="1" ry="1" width="4" x="177.4000000000001" y="41.300000000000004"><title>2024-08-09 205.27 mins</title></rect><rect fill="#4db1fe" height="4" rx="1" ry="1" width="4" x="177.4000000000001" y="46.699999999999996"><title>2024-08-10 168.3 mins</title></rect><rect fill="#76c2fc" height="4" rx="1" ry="1" width="4" x="177.4000000000001" y="52.1"><title>2024-08-11 67.28 mins</title></rect><rect fill="#50b2fd" height="4" rx="1" ry="1" width="4" x="182.8000000000001" y="19.7"><title>2024-08-12 130.55 mins</title></rect><rect fill="#50b2fd" height="4" rx="1" ry="1" width="4" x="182.8000000000001" y="25.1"><title>2024-08-13 121.13 mins</title></rect><rect fill="#73c0fc" height="4" rx="1" ry="1" width="4" x="182.8000000000001" y="30.5"><title>2024-08-14 88.53 mins</title></rect><rect fill="#34A7FF" height="4" rx="1" ry="1" width="4" x="182.8000000000001" y="35.9"><title>2024-08-15 227.33 mins</title></rect><rect fill="#4fb2fd" height="4" rx="1" ry="1" width="4" x="182.8000000000001" y="41.300000000000004"><title>2024-08-16 131.97 mins</title></rect><rect fill="#70bffc" height="4" rx="1" ry="1" width="4" x="182.8000000000001" y="46.699999999999996"><title>2024-08-17 105.15 mins</title></rect><rect fill="#7ac3fc" height="4" rx="1" ry="1" width="4" x="182.8000000000001" y="52.1"><title>2024-08-18 45.55 mins</title></rect><rect fill="#4eb1fe" height="4" rx="1" ry="1" width="4" x="188.2000000000001" y="19.7"><title>2024-08-19 146.75 mins</title></rect><rect fill="#34A7FF" height="4" rx="1" ry="1" width="4" x="188.2000000000001" y="25.1"><title>2024-08-20 205.97 mins</title></rect><rect fill="#76c1fc" height="4" rx="1" ry="1" width="4" x="188.2000000000001" y="30.5"><title>2024-08-21 70.67 mins</title></rect><rect fill="#71bffc" height="4" rx="1" ry="1" width="4" x="188.2000000000001" y="35.9"><title>2024-08-22 100.15 mins</title></rect><rect fill="#34A7FF" height="4" rx="1" ry="1" width="4" x="188.2000000000001" y="41.300000000000004"><title>2024-08-23 178.45 mins</title></rect><rect fill="#70bffc" height="4" rx="1" ry="1" width="4" x="188.2000000000001" y="46.699999999999996"><title>2024-08-24 107.17 mins</title></rect><rect fill="#74c1fc" height="4" rx="1" ry="1" width="4" x="188.2000000000001" y="52.1"><title>2024-08-25 80.27 mins</title></rect><rect fill="#34A7FF" height="4" rx="1" ry="1" width="4" x="193.6000000000001" y="19.7"><title>2024-08-26 174.52 mins</title></rect><rect fill="#34A7FF" height="4" rx="1" ry="1" width="4" x="193.6000000000001" y="25.1"><title>2024-08-27 173.62 mins</title></rect><rect fill="#78c2fc" height="4" rx="1" ry="1" width="4" x="193.6000000000001" y="30.5"><title>2024-08-28 55.27 mins</title></rect><rect fill="#34A7FF" height="4" rx="1" ry="1" width="4" x="193.6000000000001" y="35.9"><title>2024-08-29 187.8 mins</title></rect><rect fill="#78c2fc" height="4" rx="1" ry="1" width="4" x="193.6000000000001" y="41.300000000000004"><title>2024-08-30 55.65 mins</title></rect><rect fill="#4fb2fd" height="4" rx="1" ry="1" width="4" x="193.6000000000001" y="46.699999999999996"><title>2024-08-31 132.33 mins</title></rect><rect fill="#71c0fc" height="4" rx="1" ry="1" width="4" x="193.6000000000001" y="52.1"><title>2024-09-01 97.12 mins</title></rect><text fill="#000000" style="font-size:2.5px; font-family:Arial" x="199.0000000000001" y="18.3">Sep</text><rect fill="#72c0fc" height="4" rx="1" ry="1" width="4" x="199.0000000000001" y="19.7"><title>2024-09-02 94.37 mins</title></rect><rect fill="#72c0fc" height="4" rx="1" ry="1" width="4" x="199.0000000000001" y="25.1"><title>2024-09-03 93.73 mins</title></rect><rect fill="#4db1fe" height="4" rx="1" ry="1" width="4" x="199.0000000000001" y="30.5"><title>2024-09-04 158.97 mins</title></rect><rect fill="#34A7FF" height="4" rx="1" ry="1" width="4" x="199.0000000000001" y="35.9"><title>2024-09-05 206.05 mins</title></rect><rect fill="#76c1fc" height="4" rx="1" ry="1" width="4" x="199.0000000000001" y="41.300000000000004"><title>2024-09-06 71.25 mins</title></rect><rect fill="#4fb2fe" height="4" rx="1" ry="1" width="4" x="199.0000000000001" y="46.699999999999996"><title>2024-09-07 140.47 mins</title></rect><rect fill="#6fbffc" height="4" rx="1" ry="1" width="4" x="199.0000000000001" y="52.1"><title>2024-09-08 109.35 mins</title></rect><rect fill="#34A7FF" height="4" rx="1" ry="1" width="4" x="204.40000000000012" y="19.7"><title>2024-09-09 177.57 mins</title></rect><rect fill="#75c1fc" height="4" rx="1" ry="1" width="4" x="204.40000000000012" y="25.1"><title>2024-09-10 76.18 mins</title></rect><rect fill="#78c2fc" height="4" rx="1" ry="1" width="4" x="204.40000000000012" y="30.5"><title>2024-09-11 53.78 mins</title></rect><rect fill="#34A7FF" height="4" rx="1" ry="1" width="4" x="204.40000000000012" y="35.9"><title>2024-09-12 236.18 mins</title></rect><rect fill="#4db1fe" height="4" rx="1" ry="1" width="4" x="204.40000000000012" y="41.300000000000004"><title>2024-09-13 160.67 mins</title></rect><rect fill="#34A7FF" height="4" rx="1" ry="1" width="4" x="204.40000000000012" y="46.699999999999996"><title>2024-09-14 204.35 mins</title></rect><rect fill="#51b2fd" height="4" rx="1" ry="1" width="4" x="204.40000000000012" y="52.1"><title>2024-09-15 117.4 mins</title></rect><rect fill="#34A7FF" height="4" rx="1" ry="1" width="4" x="209.80000000000013" y="19.7"><title>2024-09-16 185.77 mins</title></rect><rect fill="#34A7FF" height="4" rx="1" ry="1" width="4" x="209.80000000000013" y="25.1"><title>2024-09-17 216.5 mins</title></rect><rect fill="#34A7FF" height="4" rx="1" ry="1" width="4" x="209.80000000000013" y="30.5"><title>2024-09-18 233.88 mins</title></rect><rect fill="#4fb2fd" height="4" rx="1" ry="1" width="4" x="209.80000000000013" y="35.9"><title>2024-09-19 134.63 mins</title></rect><rect fill="#7dc4fc" height="4" rx="1" ry="1" width="4" x="209.80000000000013" y="41.300000000000004"><title>2024-09-20 23.47 mins</title></rect><rect fill="#4fb2fd" height="4" rx="1" ry="1" width="4" x="209.80000000000013" y="46.699999999999996"><title>2024-09-21 135.77 mins</title></rect><rect fill="#34A7FF" height="4" rx="1" ry="1" width="4" x="209.80000000000013" y="52.1"><title>2024-09-22 222.17 mins</title></rect><rect fill="#34A7FF" height="4" rx="1" ry="1" width="4" x="215.20000000000013" y="19.7"><title>2024-09-23 210.6 mins</title></rect><rect fill="#4db1fe" height="4" rx="1" ry="1" width="4" x="215.20000000000013" y="25.1"><title>2024-09-24 157.88 mins</title></rect><rect fill="#34A7FF" height="4" rx="1" ry="1" width="4" x="215.20000000000013" y="30.5"><title>2024-09-25 237.25 mins</title></rect><rect fill="#4db1fe" height="4" rx="1" ry="1" width="4" x="215.20000000000013" y="35.9"><title>2024-09-26 164.7 mins</title></rect><rect fill="#4eb1fe" height="4" rx="1" ry="1" width="4" x="215.20000000000013" y="41.300000000000004"><title>2024-09-27 147.58 mins</title></rect><rect fill="#34A7FF" height="4" rx="1" ry="1" width="4" x="215.20000000000013" y="46.699999999999996"><title>2024-09-28 330.1 mins</title></rect><rect fill="#34A7FF" height="4" rx="1" ry="1" width="4" x="215.20000000000013" y="52.1"><title>2024-09-29 174.52 mins</title></rect><rect fill="#4db1fe" height="4" rx="1" ry="1" width="4" x="220.60000000000014" y="19.7"><title>2024-09-30 162.68 mins</title></rect><rect fill="#34A7FF" height="4" rx="1" ry="1" width="4" x="220.60000000000014" y="25.1"><title>2024-10-01 200.35 mins</title></rect><rect fill="#4fb2fd" height="4" rx="1" ry="1" width="4" x="220.60000000000014" y="30.5"><title>2024-10-02 136.02 mins</title></rect><rect fill="#34A7FF" height="4" rx="1" ry="1" width="4" x="220.60000000000014" y="35.9"><title>2024-10-03 304.35 mins</title></rect><rect fill="#34A7FF" height="4" rx="1" ry="1" width="4" x="220.60000000000014" y="41.300000000000004"><title>2024-10-04 256.87 mins</title></rect><rect fill="#34A7FF" height="4" rx="1" ry="1" width="4" x="220.60000000000014" y="46.699999999999996"><title>2024-10-05 260.48 mins</title></rect><rect fill="#34A7FF" height="4" rx="1" ry="1" width="4" x="220.60000000000014" y="52.1"><title>2024-10-06 187.85 mins</title></rect><text fill="#000000" style="font-size:2.5px; font-family:Arial" x="226.00000000000014" y="18.3">Oct</text><rect fill="#34A7FF" height="4" rx="1" ry="1" width="4" x="226.00000000000014" y="19.7"><title>2024-10-07 238.0 mins</title></rect><rect fill="#34A7FF" height="4" rx="1" ry="1" width="4" x="226.00000000000014" y="25.1"><title>2024-10-08 190.48 mins</title></rect><rect fill="#70bffc" height="4" rx="1" ry="1" width="4" x="226.00000000000014" y="30.5"><title>2024-10-09 105.3 mins</title></rect><rect fill="#4eb1fe" height="4" rx="1" ry="1" width="4" x="226.00000000000014" y="35.9"><title>2024-10-10 148.1 mins</title></rect><rect fill="#4eb1fe" height="4" rx="1" ry="1" width="4" x="226.00000000000014" y="41.300000000000004"><title>2024-10-11 155.13 mins</title></rect><rect fill="#34A7FF" height="4" rx="1" ry="1" width="4" x="226.00000000000014" y="46.699999999999996"><title>2024-10-12 267.83 mins</title></rect><rect fill="#74c1fc" height="4" rx="1" ry="1" width="4" x="226.00000000000014" y="52.1"><title>2024-10-13 78.28 mins</title></rect><rect fill="#34A7FF" height="4" rx="1" ry="1" width="4" x="231.40000000000015" y="19.7"><title>2024-10-14 209.63 mins</title></rect><rect fill="#34A7FF" height="4" rx="1" ry="1" width="4" x="231.40000000000015" y="25.1"><title>2024-10-15 194.08 mins</title></rect><rect fill="#34A7FF" height="4" rx="1" ry="1" width="4" x="231.40000000000015" y="30.5"><title>2024-10-16 175.98 mins</title></rect><rect fill="#34A7FF" height="4" rx="1" ry="1" width="4" x="231.40000000000015" y="35.9"><title>2024-10-17 173.38 mins</title></rect><rect fill="#34A7FF" height="4" rx="1" ry="1" width="4" x="231.40000000000015" y="41.300000000000004"><title>2024-10-18 334.15 mins</title></rect><rect fill="#4fb1fe" height="4" rx="1" ry="1" width="4" x="231.40000000000015" y="46.699999999999996"><title>2024-10-19 143.07 mins</title></rect><rect fill="#34A7FF" height="4" rx="1" ry="1" width="4" x="231.40000000000015" y="52.1"><title>2024-10-20 208.62 mins</title></rect><rect fill="#34A7FF" height="4" rx="1" ry="1" width="4" x="236.80000000000015" y="19.7"><title>2024-10-21 185.4 mins</title></rect><rect fill="#4db1fe" height="4" rx="1" ry="1" width="4" x="236.80000000000015" y="25.1"><title>2024-10-22 167.67 mins</title></rect><rect fill="#34A7FF" height="4" rx="1" ry="1" width="4" x="236.80000000000015" y="30.5"><title>2024-10-23 195.77 mins</title></rect><rect fill="#71bffc" height="4" rx="1" ry="1" width="4" x="236.80000000000015" y="35.9"><title>2024-10-24 99.65 mins</title></rect><rect fill="#34A7FF" height="4" rx="1" ry="1" width="4" x="236.80000000000015" y="41.300000000000004"><title>2024-10-25 280.42 mins</title></rect><rect fill="#34A7FF" height="4" rx="1" ry="1" width="4" x="236.80000000000015" y="46.699999999999996"><title>2024-10-26 253.23 mins</title></rect><rect fill="#34A7FF" height="4" rx="1" ry="1" width="4" x="236.80000000000015" y="52.1"><title>2024-10-27 394.2 mins</title></rect><rect fill="#4db1fe" height="4" rx="1" ry="1" width="4" x="242.20000000000016" y="19.7"><title>2024-10-28 168.55 mins</title></rect><rect fill="#76c1fc" height="4" rx="1" ry="1" width="4" x="242.20000000000016" y="25.1"><title>2024-10-29 69.62 mins</title></rect><rect fill="#34A7FF" height="4" rx="1" ry="1" width="4" x="242.20000000000016" y="30.5"><title>2024-10-30 180.58 mins</title></rect><rect fill="#50b2fd" height="4" rx="1" ry="1" width="4" x="242.20000000000016" y="35.9"><title>2024-10-31 125.1 mins</title></rect><rect fill="#EBEDF0" height="4" rx="1" ry="1" width="4" x="242.20000000000016" y="41.300000000000004"><title>2024-11-01</title></rect><rect fill="#EBEDF0" height="4" rx="1" ry="1" width="4" x="242.20000000000016" y="46.699999999999996"><title>2024-11-02</title></rect><rect fill="#EBEDF0" height="4" rx="1" ry="1" width="4" x="242.20000000000016" y="52.1"><title>2024-11-03</title></rect><text fill="#000000" style="font-size:2.5px; font-family:Arial" x="247.60000000000016" y="18.3">Nov</text><rect fill="#EBEDF0" height="4" rx="1" ry="1" width="4" x="247.60000000000016" y="19.7"><title>2024-11-04</title></rect><rect fill="#EBEDF0" height="4" rx="1" ry="1" width="4" x="247.60000000000016" y="25.1"><title>2024-11-05</title></rect><rect fill="#EBEDF0" height="4" rx="1" ry="1" width="4" x="247.60000000000016" y="30.5"><title>2024-11-06</title></rect><rect fill="#EBEDF0" height="4" rx="1" ry="1" width="4" x="247.60000000000016" y="35.9"><title>2024-11-07</title></rect><rect fill="#EBEDF0" height="4" rx="1" ry="1" width="4" x="247.60000000000016" y="41.300000000000004"><title>2024-11-08</title></rect><rect fill="#EBEDF0" height="4" rx="1" ry="1" width="4" x="247.60000000000016" y="46.699999999999996"><title>2024-11-09</title></rect><rect fill="#EBEDF0" height="4" rx="1" ry="1" width="4" x="247.60000000000016" y="52.1"><title>2024-11-10</title></rect><rect fill="#EBEDF0" height="4" rx="1" ry="1" width="4" x="253.00000000000017" y="19.7"><title>2024-11-11</title></rect><rect fill="#EBEDF0" height="4" rx="1" ry="1" width="4" x="253.00000000000017" y="25.1"><title>2024-11-12</title></rect><rect fill="#EBEDF0" height="4" rx="1" ry="1" width="4" x="253.00000000000017" y="30.5"><title>2024-11-13</title></rect><rect fill="#EBEDF0" height="4" rx="1" ry="1" width="4" x="253.00000000000017" y="35.9"><title>2024-11-14</title></rect><rect fill="#EBEDF0" height="4" rx="1" ry="1" width="4" x="253.00000000000017" y="41.300000000000004"><title>2024-11-15</title></rect><rect fill="#EBEDF0" height="4" rx="1" ry="1" width="4" x="253.00000000000017" y="46.699999999999996"><title>2024-11-16</title></rect><rect fill="#EBEDF0" height="4" rx="1" ry="1" width="4" x="253.00000000000017" y="52.1"><title>2024-11-17</title></rect><rect fill="#EBEDF0" height="4" rx="1" ry="1" width="4" x="258.40000000000015" y="19.7"><title>2024-11-18</title></rect><rect fill="#EBEDF0" height="4" rx="1" ry="1" width="4" x="258.40000000000015" y="25.1"><title>2024-11-19</title></rect><rect fill="#EBEDF0" height="4" rx="1" ry="1" width="4" x="258.40000000000015" y="30.5"><title>2024-11-20</title></rect><rect fill="#EBEDF0" height="4" rx="1" ry="1" width="4" x="258.40000000000015" y="35.9"><title>2024-11-21</title></rect><rect fill="#EBEDF0" height="4" rx="1" ry="1" width="4" x="258.40000000000015" y="41.300000000000004"><title>2024-11-22</title></rect><rect fill="#EBEDF0" height="4" rx="1" ry="1" width="4" x="258.40000000000015" y="46.699999999999996"><title>2024-11-23</title></rect><rect fill="#EBEDF0" height="4" rx="1" ry="1" width="4" x="258.40000000000015" y="52.1"><title>2024-11-24</title></rect><rect fill="#EBEDF0" height="4" rx="1" ry="1" width="4" x="263.8000000000001" y="19.7"><title>2024-11-25</title></rect><rect fill="#EBEDF0" height="4" rx="1" ry="1" width="4" x="263.8000000000001" y="25.1"><title>2024-11-26</title></rect><rect fill="#EBEDF0" height="4" rx="1" ry="1" width="4" x="263.8000000000001" y="30.5"><title>2024-11-27</title></rect><rect fill="#EBEDF0" height="4" rx="1" ry="1" width="4" x="263.8000000000001" y="35.9"><title>2024-11-28</title></rect><rect fill="#EBEDF0" height="4" rx="1" ry="1" width="4" x="263.8000000000001" y="41.300000000000004"><title>2024-11-29</title></rect><rect fill="#EBEDF0" height="4" rx="1" ry="1" width="4" x="263.8000000000001" y="46.699999999999996"><title>2024-11-30</title></rect><rect fill="#EBEDF0" height="4" rx="1" ry="1" width="4" x="263.8000000000001" y="52.1"><title>2024-12-01</title></rect><text fill="#000000" style="font-size:2.5px; font-family:Arial" x="269.2000000000001" y="18.3">Dec</text><rect fill="#EBEDF0" height="4" rx="1" ry="1" width="4" x="269.2000000000001" y="19.7"><title>2024-12-02</title></rect><rect fill="#EBEDF0" height="4" rx="1" ry="1" width="4" x="269.2000000000001" y="25.1"><title>2024-12-03</title></rect><rect fill="#EBEDF0" height="4" rx="1" ry="1" width="4" x="269.2000000000001" y="30.5"><title>2024-12-04</title></rect><rect fill="#EBEDF0" height="4" rx="1" ry="1" width="4" x="269.2000000000001" y="35.9"><title>2024-12-05</title></rect><rect fill="#EBEDF0" height="4" rx="1" ry="1" width="4" x="269.2000000000001" y="41.300000000000004"><title>2024-12-06</title></rect><rect fill="#EBEDF0" height="4" rx="1" ry="1" width="4" x="269.2000000000001" y="46.699999999999996"><title>2024-12-07</title></rect><rect fill="#EBEDF0" height="4" rx="1" ry="1" width="4" x="269.2000000000001" y="52.1"><title>2024-12-08</title></rect><rect fill="#EBEDF0" height="4" rx="1" ry="1" width="4" x="274.6000000000001" y="19.7"><title>2024-12-09</title></rect><rect fill="#EBEDF0" height="4" rx="1" ry="1" width="4" x="274.6000000000001" y="25.1"><title>2024-12-10</title></rect><rect fill="#EBEDF0" height="4" rx="1" ry="1" width="4" x="274.6000000000001" y="30.5"><title>2024-12-11</title></rect><rect fill="#EBEDF0" height="4" rx="1" ry="1" width="4" x="274.6000000000001" y="35.9"><title>2024-12-12</title></rect><rect fill="#EBEDF0" height="4" rx="1" ry="1" width="4" x="274.6000000000001" y="41.300000000000004"><title>2024-12-13</title></rect><rect fill="#EBEDF0" height="4" rx="1" ry="1" width="4" x="274.6000000000001" y="46.699999999999996"><title>2024-12-14</title></rect><rect fill="#EBEDF0" height="4" rx="1" ry="1" width="4" x="274.6000000000001" y="52.1"><title>2024-12-15</title></rect><rect fill="#EBEDF0" height="4" rx="1" ry="1" width="4" x="280.00000000000006" y="19.7"><title>2024-12-16</title></rect><rect fill="#EBEDF0" height="4" rx="1" ry="1" width="4" x="280.00000000000006" y="25.1"><title>2024-12-17</title></rect><rect fill="#EBEDF0" height="4" rx="1" ry="1" width="4" x="280.00000000000006" y="30.5"><title>2024-12-18</title></rect><rect fill="#EBEDF0" height="4" rx="1" ry="1" width="4" x="280.00000000000006" y="35.9"><title>2024-12-19</title></rect><rect fill="#EBEDF0" height="4" rx="1" ry="1" width="4" x="280.00000000000006" y="41.300000000000004"><title>2024-12-20</title></rect><rect fill="#EBEDF0" height="4" rx="1" ry="1" width="4" x="280.00000000000006" y="46.699999999999996"><title>2024-12-21</title></rect><rect fill="#EBEDF0" height="4" rx="1" ry="1" width="4" x="280.00000000000006" y="52.1"><title>2024-12-22</title></rect><rect fill="#EBEDF0" height="4" rx="1" ry="1" width="4" x="285.40000000000003" y="19.7"><title>2024-12-23</title></rect><rect fill="#EBEDF0" height="4" rx="1" ry="1" width="4" x="285.40000000000003" y="25.1"><title>2024-12-24</title></rect><rect fill="#EBEDF0" height="4" rx="1" ry="1" width="4" x="285.40000000000003" y="30.5"><title>2024-12-25</title></rect><rect fill="#EBEDF0" height="4" rx="1" ry="1" width="4" x="285.40000000000003" y="35.9"><title>2024-12-26</title></rect><rect fill="#EBEDF0" height="4" rx="1" ry="1" width="4" x="285.40000000000003" y="41.300000000000004"><title>2024-12-27</title></rect><rect fill="#EBEDF0" height="4" rx="1" ry="1" width="4" x="285.40000000000003" y="46.699999999999996"><title>2024-12-28</title></rect><rect fill="#EBEDF0" height="4" rx="1" ry="1" width="4" x="285.40000000000003" y="52.1"><title>2024-12-29</title></rect><rect fill="#EBEDF0" height="4" rx="1" ry="1" width="4" x="290.8" y="19.7"><title>2024-12-30</title></rect><rect fill="#EBEDF0" height="4" rx="1" ry="1" width="4" x="290.8" y="25.1"><title>2024-12-31</title></rect></svg>